<?xml version="1.0" encoding="UTF-8" standalone="no"?>
<!DOCTYPE svg PUBLIC "-//W3C//DTD SVG 1.1//EN"
 "http://www.w3.org/Graphics/SVG/1.1/DTD/svg11.dtd">
<!-- Generated by graphviz version 2.38.0 (20140413.2041)
 -->
<!-- Title: controllers_diagram Pages: 1 -->
<svg width="769pt" height="747pt"
 viewBox="0.00 0.00 768.60 747.00" xmlns="http://www.w3.org/2000/svg" xmlns:xlink="http://www.w3.org/1999/xlink">
<g id="graph0" class="graph" transform="scale(1 1) rotate(0) translate(276.217 386.5)">
<title>controllers_diagram</title>
<polygon fill="none" stroke="none" points="-276.217,360.5 -276.217,-386.5 492.383,-386.5 492.383,360.5 -276.217,360.5"/>
<!-- _diagram_info -->
<g id="node1" class="node"><title>_diagram_info</title>
<text text-anchor="start" x="-8.68774" y="-348.1" font-family="Times,serif" font-size="13.00">Controllers diagram</text>
<text text-anchor="start" x="-8.68774" y="-335.1" font-family="Times,serif" font-size="13.00">Date: Aug 16 2016 &#45; 15:18</text>
<text text-anchor="start" x="-8.68774" y="-322.1" font-family="Times,serif" font-size="13.00">Migration version: 20160816191241</text>
<text text-anchor="start" x="-8.68774" y="-309.1" font-family="Times,serif" font-size="13.00">Generated by RailRoady 1.5.1</text>
<text text-anchor="start" x="-8.68774" y="-296.1" font-family="Times,serif" font-size="13.00">http://railroady.prestonlee.com</text>
</g>
<!-- Api::V1::DonorsController -->
<g id="node2" class="node"><title>Api::V1::DonorsController</title>
<path fill="none" stroke="black" d="M-260.217,271C-260.217,271 -115.783,271 -115.783,271 -109.783,271 -103.783,265 -103.783,259 -103.783,259 -103.783,151 -103.783,151 -103.783,145 -109.783,139 -115.783,139 -115.783,139 -260.217,139 -260.217,139 -266.217,139 -272.217,145 -272.217,151 -272.217,151 -272.217,259 -272.217,259 -272.217,265 -266.217,271 -260.217,271"/>
<text text-anchor="middle" x="-188" y="154.2" font-family="Times,serif" font-size="14.00">Api::V1::DonorsController</text>
<polyline fill="none" stroke="black" points="-272.217,161 -103.783,161 "/>
<text text-anchor="start" x="-264.217" y="176.2" font-family="Times,serif" font-size="14.00">edit</text>
<text text-anchor="start" x="-264.217" y="190.2" font-family="Times,serif" font-size="14.00">show</text>
<text text-anchor="start" x="-264.217" y="204.2" font-family="Times,serif" font-size="14.00">update</text>
<polyline fill="none" stroke="black" points="-272.217,211 -103.783,211 "/>
<polyline fill="none" stroke="black" points="-272.217,235 -103.783,235 "/>
<text text-anchor="start" x="-264.217" y="250.2" font-family="Times,serif" font-size="14.00">_layout</text>
<text text-anchor="start" x="-264.217" y="264.2" font-family="Times,serif" font-size="14.00">donor_params</text>
</g>
<!-- Api::V1::GiftsController -->
<g id="node3" class="node"><title>Api::V1::GiftsController</title>
<path fill="none" stroke="black" d="M-72.6069,101C-72.6069,101 58.6069,101 58.6069,101 64.6069,101 70.6069,95 70.6069,89 70.6069,89 70.6069,-75 70.6069,-75 70.6069,-81 64.6069,-87 58.6069,-87 58.6069,-87 -72.6069,-87 -72.6069,-87 -78.6069,-87 -84.6069,-81 -84.6069,-75 -84.6069,-75 -84.6069,89 -84.6069,89 -84.6069,95 -78.6069,101 -72.6069,101"/>
<text text-anchor="middle" x="-7" y="-71.8" font-family="Times,serif" font-size="14.00">Api::V1::GiftsController</text>
<polyline fill="none" stroke="black" points="-84.6069,-65 70.6069,-65 "/>
<text text-anchor="start" x="-76.6069" y="-49.8" font-family="Times,serif" font-size="14.00">create</text>
<polyline fill="none" stroke="black" points="-84.6069,-43 70.6069,-43 "/>
<polyline fill="none" stroke="black" points="-84.6069,-19 70.6069,-19 "/>
<text text-anchor="start" x="-76.6069" y="-3.8" font-family="Times,serif" font-size="14.00">update_conversion</text>
<text text-anchor="start" x="-76.6069" y="10.2" font-family="Times,serif" font-size="14.00">donor_params</text>
<text text-anchor="start" x="-76.6069" y="24.2" font-family="Times,serif" font-size="14.00">find_or_create_donor</text>
<text text-anchor="start" x="-76.6069" y="38.2" font-family="Times,serif" font-size="14.00">gift_params</text>
<text text-anchor="start" x="-76.6069" y="52.2" font-family="Times,serif" font-size="14.00">pledge?</text>
<text text-anchor="start" x="-76.6069" y="66.2" font-family="Times,serif" font-size="14.00">process_payment</text>
<text text-anchor="start" x="-76.6069" y="80.2" font-family="Times,serif" font-size="14.00">school_params</text>
<text text-anchor="start" x="-76.6069" y="94.2" font-family="Times,serif" font-size="14.00">create_gift</text>
</g>
<!-- ApplicationController -->
<g id="node4" class="node"><title>ApplicationController</title>
<path fill="none" stroke="black" d="M-242.821,-18C-242.821,-18 -127.179,-18 -127.179,-18 -121.179,-18 -115.179,-24 -115.179,-30 -115.179,-30 -115.179,-126 -115.179,-126 -115.179,-132 -121.179,-138 -127.179,-138 -127.179,-138 -242.821,-138 -242.821,-138 -248.821,-138 -254.821,-132 -254.821,-126 -254.821,-126 -254.821,-30 -254.821,-30 -254.821,-24 -248.821,-18 -242.821,-18"/>
<text text-anchor="middle" x="-185" y="-122.8" font-family="Times,serif" font-size="14.00">ApplicationController</text>
<polyline fill="none" stroke="black" points="-254.821,-116 -115.179,-116 "/>
<polyline fill="none" stroke="black" points="-254.821,-92 -115.179,-92 "/>
<polyline fill="none" stroke="black" points="-254.821,-68 -115.179,-68 "/>
<text text-anchor="start" x="-246.821" y="-52.8" font-family="Times,serif" font-size="14.00">allow_iframe</text>
<text text-anchor="start" x="-246.821" y="-38.8" font-family="Times,serif" font-size="14.00">authenticate_user</text>
<text text-anchor="start" x="-246.821" y="-24.8" font-family="Times,serif" font-size="14.00">authenticated?</text>
</g>
<!-- Campaigns::DemosController -->
<g id="node5" class="node"><title>Campaigns::DemosController</title>
<path fill="none" stroke="black" d="M-225.99,-290C-225.99,-290 -66.0103,-290 -66.0103,-290 -60.0103,-290 -54.0103,-296 -54.0103,-302 -54.0103,-302 -54.0103,-370 -54.0103,-370 -54.0103,-376 -60.0103,-382 -66.0103,-382 -66.0103,-382 -225.99,-382 -225.99,-382 -231.99,-382 -237.99,-376 -237.99,-370 -237.99,-370 -237.99,-302 -237.99,-302 -237.99,-296 -231.99,-290 -225.99,-290"/>
<text text-anchor="middle" x="-146" y="-366.8" font-family="Times,serif" font-size="14.00">Campaigns::DemosController</text>
<polyline fill="none" stroke="black" points="-237.99,-360 -54.0103,-360 "/>
<text text-anchor="start" x="-229.99" y="-344.8" font-family="Times,serif" font-size="14.00">create</text>
<polyline fill="none" stroke="black" points="-237.99,-338 -54.0103,-338 "/>
<polyline fill="none" stroke="black" points="-237.99,-314 -54.0103,-314 "/>
</g>
<!-- Campaigns::Emails::DemosController -->
<g id="node6" class="node"><title>Campaigns::Emails::DemosController</title>
<path fill="none" stroke="black" d="M113.679,-86C113.679,-86 320.321,-86 320.321,-86 326.321,-86 332.321,-92 332.321,-98 332.321,-98 332.321,-178 332.321,-178 332.321,-184 326.321,-190 320.321,-190 320.321,-190 113.679,-190 113.679,-190 107.679,-190 101.679,-184 101.679,-178 101.679,-178 101.679,-98 101.679,-98 101.679,-92 107.679,-86 113.679,-86"/>
<text text-anchor="middle" x="217" y="-174.8" font-family="Times,serif" font-size="14.00">Campaigns::Emails::DemosController</text>
<polyline fill="none" stroke="black" points="101.679,-168 332.321,-168 "/>
<text text-anchor="start" x="109.679" y="-152.8" font-family="Times,serif" font-size="14.00">create</text>
<polyline fill="none" stroke="black" points="101.679,-146 332.321,-146 "/>
<polyline fill="none" stroke="black" points="101.679,-122 332.321,-122 "/>
<text text-anchor="start" x="109.679" y="-106.8" font-family="Times,serif" font-size="14.00">campaign_params</text>
<text text-anchor="start" x="109.679" y="-92.8" font-family="Times,serif" font-size="14.00">email_params</text>
</g>
<!-- Campaigns::EmailsController -->
<g id="node7" class="node"><title>Campaigns::EmailsController</title>
<path fill="none" stroke="black" d="M233.4,-222C233.4,-222 392.6,-222 392.6,-222 398.6,-222 404.6,-228 404.6,-234 404.6,-234 404.6,-342 404.6,-342 404.6,-348 398.6,-354 392.6,-354 392.6,-354 233.4,-354 233.4,-354 227.4,-354 221.4,-348 221.4,-342 221.4,-342 221.4,-234 221.4,-234 221.4,-228 227.4,-222 233.4,-222"/>
<text text-anchor="middle" x="313" y="-338.8" font-family="Times,serif" font-size="14.00">Campaigns::EmailsController</text>
<polyline fill="none" stroke="black" points="221.4,-332 404.6,-332 "/>
<text text-anchor="start" x="229.4" y="-316.8" font-family="Times,serif" font-size="14.00">create</text>
<polyline fill="none" stroke="black" points="221.4,-310 404.6,-310 "/>
<polyline fill="none" stroke="black" points="221.4,-286 404.6,-286 "/>
<text text-anchor="start" x="229.4" y="-270.8" font-family="Times,serif" font-size="14.00">campaign_params</text>
<text text-anchor="start" x="229.4" y="-256.8" font-family="Times,serif" font-size="14.00">create_campaign</text>
<text text-anchor="start" x="229.4" y="-242.8" font-family="Times,serif" font-size="14.00">email_params</text>
<text text-anchor="start" x="229.4" y="-228.8" font-family="Times,serif" font-size="14.00">send_email</text>
</g>
<!-- Campaigns::Texts::GiftsController -->
<g id="node8" class="node"><title>Campaigns::Texts::GiftsController</title>
<path fill="none" stroke="black" d="M11.8887,220C11.8887,220 198.111,220 198.111,220 204.111,220 210.111,214 210.111,208 210.111,208 210.111,142 210.111,142 210.111,136 204.111,130 198.111,130 198.111,130 11.8887,130 11.8887,130 5.88867,130 -0.111328,136 -0.111328,142 -0.111328,142 -0.111328,208 -0.111328,208 -0.111328,214 5.88867,220 11.8887,220"/>
<text text-anchor="middle" x="105" y="145.2" font-family="Times,serif" font-size="14.00">Campaigns::Texts::GiftsController</text>
<polyline fill="none" stroke="black" points="-0.111328,152 210.111,152 "/>
<text text-anchor="start" x="7.88867" y="167.2" font-family="Times,serif" font-size="14.00">create</text>
<polyline fill="none" stroke="black" points="-0.111328,174 210.111,174 "/>
<polyline fill="none" stroke="black" points="-0.111328,198 210.111,198 "/>
<text text-anchor="start" x="7.88867" y="213.2" font-family="Times,serif" font-size="14.00">process_payment</text>
</g>
<!-- Campaigns::TextsController -->
<g id="node9" class="node"><title>Campaigns::TextsController</title>
<path fill="none" stroke="black" d="M113.778,101C113.778,101 264.222,101 264.222,101 270.222,101 276.222,95 276.222,89 276.222,89 276.222,-47 276.222,-47 276.222,-53 270.222,-59 264.222,-59 264.222,-59 113.778,-59 113.778,-59 107.778,-59 101.778,-53 101.778,-47 101.778,-47 101.778,89 101.778,89 101.778,95 107.778,101 113.778,101"/>
<text text-anchor="middle" x="189" y="-43.8" font-family="Times,serif" font-size="14.00">Campaigns::TextsController</text>
<polyline fill="none" stroke="black" points="101.778,-37 276.222,-37 "/>
<text text-anchor="start" x="109.778" y="-21.8" font-family="Times,serif" font-size="14.00">create</text>
<polyline fill="none" stroke="black" points="101.778,-15 276.222,-15 "/>
<polyline fill="none" stroke="black" points="101.778,9 276.222,9 "/>
<text text-anchor="start" x="109.778" y="24.2" font-family="Times,serif" font-size="14.00">campaign_params</text>
<text text-anchor="start" x="109.778" y="38.2" font-family="Times,serif" font-size="14.00">create_campaign</text>
<text text-anchor="start" x="109.778" y="52.2" font-family="Times,serif" font-size="14.00">save_text</text>
<text text-anchor="start" x="109.778" y="66.2" font-family="Times,serif" font-size="14.00">send_batch</text>
<text text-anchor="start" x="109.778" y="80.2" font-family="Times,serif" font-size="14.00">send_text</text>
<text text-anchor="start" x="109.778" y="94.2" font-family="Times,serif" font-size="14.00">text_params</text>
</g>
<!-- CampaignsController -->
<g id="node10" class="node"><title>CampaignsController</title>
<path fill="none" stroke="black" d="M11.731,356C11.731,356 124.269,356 124.269,356 130.269,356 136.269,350 136.269,344 136.269,344 136.269,262 136.269,262 136.269,256 130.269,250 124.269,250 124.269,250 11.731,250 11.731,250 5.73096,250 -0.269043,256 -0.269043,262 -0.269043,262 -0.269043,344 -0.269043,344 -0.269043,350 5.73096,356 11.731,356"/>
<text text-anchor="middle" x="68" y="265.2" font-family="Times,serif" font-size="14.00">CampaignsController</text>
<polyline fill="none" stroke="black" points="-0.269043,272 136.269,272 "/>
<text text-anchor="start" x="7.73096" y="287.2" font-family="Times,serif" font-size="14.00">index</text>
<text text-anchor="start" x="7.73096" y="301.2" font-family="Times,serif" font-size="14.00">show</text>
<polyline fill="none" stroke="black" points="-0.269043,308 136.269,308 "/>
<polyline fill="none" stroke="black" points="-0.269043,332 136.269,332 "/>
</g>
<!-- DonorListsController -->
<g id="node11" class="node"><title>DonorListsController</title>
<path fill="none" stroke="black" d="M317.728,118C317.728,118 430.272,118 430.272,118 436.272,118 442.272,112 442.272,106 442.272,106 442.272,-4 442.272,-4 442.272,-10 436.272,-16 430.272,-16 430.272,-16 317.728,-16 317.728,-16 311.728,-16 305.728,-10 305.728,-4 305.728,-4 305.728,106 305.728,106 305.728,112 311.728,118 317.728,118"/>
<text text-anchor="middle" x="374" y="-0.8" font-family="Times,serif" font-size="14.00">DonorListsController</text>
<polyline fill="none" stroke="black" points="305.728,6 442.272,6 "/>
<text text-anchor="start" x="313.728" y="21.2" font-family="Times,serif" font-size="14.00">create</text>
<text text-anchor="start" x="313.728" y="35.2" font-family="Times,serif" font-size="14.00">index</text>
<text text-anchor="start" x="313.728" y="49.2" font-family="Times,serif" font-size="14.00">show</text>
<text text-anchor="start" x="313.728" y="63.2" font-family="Times,serif" font-size="14.00">update</text>
<polyline fill="none" stroke="black" points="305.728,70 442.272,70 "/>
<polyline fill="none" stroke="black" points="305.728,94 442.272,94 "/>
</g>
<!-- DonorsController -->
<g id="node12" class="node"><title>DonorsController</title>
<path fill="none" stroke="black" d="M385.617,-52C385.617,-52 476.383,-52 476.383,-52 482.383,-52 488.383,-58 488.383,-64 488.383,-64 488.383,-174 488.383,-174 488.383,-180 482.383,-186 476.383,-186 476.383,-186 385.617,-186 385.617,-186 379.617,-186 373.617,-180 373.617,-174 373.617,-174 373.617,-64 373.617,-64 373.617,-58 379.617,-52 385.617,-52"/>
<text text-anchor="middle" x="431" y="-170.8" font-family="Times,serif" font-size="14.00">DonorsController</text>
<polyline fill="none" stroke="black" points="373.617,-164 488.383,-164 "/>
<text text-anchor="start" x="381.617" y="-148.8" font-family="Times,serif" font-size="14.00">edit</text>
<text text-anchor="start" x="381.617" y="-134.8" font-family="Times,serif" font-size="14.00">index</text>
<text text-anchor="start" x="381.617" y="-120.8" font-family="Times,serif" font-size="14.00">show</text>
<text text-anchor="start" x="381.617" y="-106.8" font-family="Times,serif" font-size="14.00">update</text>
<polyline fill="none" stroke="black" points="373.617,-100 488.383,-100 "/>
<polyline fill="none" stroke="black" points="373.617,-76 488.383,-76 "/>
</g>
<!-- FormsController -->
<g id="node13" class="node"><title>FormsController</title>
<path fill="none" stroke="black" d="M-242.993,101C-242.993,101 -125.007,101 -125.007,101 -119.007,101 -113.007,95 -113.007,89 -113.007,89 -113.007,23 -113.007,23 -113.007,17 -119.007,11 -125.007,11 -125.007,11 -242.993,11 -242.993,11 -248.993,11 -254.993,17 -254.993,23 -254.993,23 -254.993,89 -254.993,89 -254.993,95 -248.993,101 -242.993,101"/>
<text text-anchor="middle" x="-184" y="26.2" font-family="Times,serif" font-size="14.00">FormsController</text>
<polyline fill="none" stroke="black" points="-254.993,33 -113.007,33 "/>
<text text-anchor="start" x="-246.993" y="48.2" font-family="Times,serif" font-size="14.00">show</text>
<polyline fill="none" stroke="black" points="-254.993,55 -113.007,55 "/>
<polyline fill="none" stroke="black" points="-254.993,79 -113.007,79 "/>
<text text-anchor="start" x="-246.993" y="94.2" font-family="Times,serif" font-size="14.00">find_payment_method</text>
</g>
<!-- Metrics::Forms::ConversionsController -->
<g id="node14" class="node"><title>Metrics::Forms::ConversionsController</title>
<path fill="none" stroke="black" d="M-157.828,-171C-157.828,-171 55.8276,-171 55.8276,-171 61.8276,-171 67.8276,-177 67.8276,-183 67.8276,-183 67.8276,-251 67.8276,-251 67.8276,-257 61.8276,-263 55.8276,-263 55.8276,-263 -157.828,-263 -157.828,-263 -163.828,-263 -169.828,-257 -169.828,-251 -169.828,-251 -169.828,-183 -169.828,-183 -169.828,-177 -163.828,-171 -157.828,-171"/>
<text text-anchor="middle" x="-51" y="-247.8" font-family="Times,serif" font-size="14.00">Metrics::Forms::ConversionsController</text>
<polyline fill="none" stroke="black" points="-169.828,-241 67.8276,-241 "/>
<text text-anchor="start" x="-161.828" y="-225.8" font-family="Times,serif" font-size="14.00">create</text>
<polyline fill="none" stroke="black" points="-169.828,-219 67.8276,-219 "/>
<polyline fill="none" stroke="black" points="-169.828,-195 67.8276,-195 "/>
</g>
<!-- Users::AuthenticationController -->
<g id="node15" class="node"><title>Users::AuthenticationController</title>
<path fill="none" stroke="black" d="M249.796,237C249.796,237 422.204,237 422.204,237 428.204,237 434.204,231 434.204,225 434.204,225 434.204,159 434.204,159 434.204,153 428.204,147 422.204,147 422.204,147 249.796,147 249.796,147 243.796,147 237.796,153 237.796,159 237.796,159 237.796,225 237.796,225 237.796,231 243.796,237 249.796,237"/>
<text text-anchor="middle" x="336" y="162.2" font-family="Times,serif" font-size="14.00">Users::AuthenticationController</text>
<polyline fill="none" stroke="black" points="237.796,169 434.204,169 "/>
<text text-anchor="start" x="245.796" y="184.2" font-family="Times,serif" font-size="14.00">create</text>
<polyline fill="none" stroke="black" points="237.796,191 434.204,191 "/>
<polyline fill="none" stroke="black" points="237.796,215 434.204,215 "/>
<text text-anchor="start" x="245.796" y="230.2" font-family="Times,serif" font-size="14.00">auth_params</text>
</g>
</g>
</svg>
