<?xml version="1.0" encoding="UTF-8" standalone="no"?>
<!DOCTYPE svg PUBLIC "-//W3C//DTD SVG 1.1//EN"
 "http://www.w3.org/Graphics/SVG/1.1/DTD/svg11.dtd">
<!-- Generated by graphviz version 2.38.0 (20140413.2041)
 -->
<!-- Title: models_diagram Pages: 1 -->
<svg width="834pt" height="339pt"
 viewBox="0.00 0.00 833.65 339.00" xmlns="http://www.w3.org/2000/svg" xmlns:xlink="http://www.w3.org/1999/xlink">
<g id="graph0" class="graph" transform="scale(1 1) rotate(0) translate(4 335)">
<title>models_diagram</title>
<polygon fill="none" stroke="none" points="-4,4 -4,-335 829.647,-335 829.647,4 -4,4"/>
<!-- _diagram_info -->
<g id="node1" class="node"><title>_diagram_info</title>
<text text-anchor="start" x="8" y="-316.6" font-family="Times,serif" font-size="13.00">Models diagram</text>
<text text-anchor="start" x="8" y="-303.6" font-family="Times,serif" font-size="13.00">Date: Aug 16 2016 &#45; 15:18</text>
<text text-anchor="start" x="8" y="-290.6" font-family="Times,serif" font-size="13.00">Migration version: 20160816191241</text>
<text text-anchor="start" x="8" y="-277.6" font-family="Times,serif" font-size="13.00">Generated by RailRoady 1.5.1</text>
<text text-anchor="start" x="8" y="-264.6" font-family="Times,serif" font-size="13.00">http://railroady.prestonlee.com</text>
</g>
<!-- ApplicationRecord -->
<g id="node2" class="node"><title>ApplicationRecord</title>
<ellipse fill="none" stroke="black" cx="302.688" cy="-294.5" rx="77.2916" ry="18"/>
<text text-anchor="middle" x="302.688" y="-290.3" font-family="Times,serif" font-size="14.00">ApplicationRecord</text>
</g>
<!-- Campaign::Email -->
<g id="node3" class="node"><title>Campaign::Email</title>
<ellipse fill="none" stroke="black" cx="601.688" cy="-18" rx="72.4808" ry="18"/>
<text text-anchor="middle" x="601.688" y="-13.8" font-family="Times,serif" font-size="14.00">Campaign::Email</text>
</g>
<!-- Campaign::Text -->
<g id="node4" class="node"><title>Campaign::Text</title>
<ellipse fill="none" stroke="black" cx="758.688" cy="-18" rx="66.9178" ry="18"/>
<text text-anchor="middle" x="758.688" y="-13.8" font-family="Times,serif" font-size="14.00">Campaign::Text</text>
</g>
<!-- Campaign -->
<g id="node5" class="node"><title>Campaign</title>
<ellipse fill="none" stroke="black" cx="757.688" cy="-104" rx="46.4132" ry="18"/>
<text text-anchor="middle" x="757.688" y="-99.8" font-family="Times,serif" font-size="14.00">Campaign</text>
</g>
<!-- Campaign&#45;&gt;Campaign::Email -->
<g id="edge3" class="edge"><title>Campaign&#45;&gt;Campaign::Email</title>
<path fill="none" stroke="#89a659" d="M724.393,-85.0721C698.9,-71.3449 663.787,-52.4382 637.653,-38.3658"/>
<ellipse fill="none" stroke="#89a659" cx="728.055" cy="-87.0439" rx="4.00002" ry="4.00002"/>
<ellipse fill="#89a659" stroke="#89a659" cx="634.057" cy="-36.4295" rx="4.00002" ry="4.00002"/>
<text text-anchor="middle" x="704.236" y="-56.8" font-family="Times,serif" font-size="14.00">email</text>
</g>
<!-- Campaign&#45;&gt;Campaign::Text -->
<g id="edge2" class="edge"><title>Campaign&#45;&gt;Campaign::Text</title>
<path fill="none" stroke="#0efe16" d="M757.994,-77.2567C758.119,-66.815 758.262,-54.7881 758.386,-44.3833"/>
<ellipse fill="none" stroke="#0efe16" cx="757.943" cy="-81.5954" rx="4" ry="4"/>
<ellipse fill="#0efe16" stroke="#0efe16" cx="758.437" cy="-40.0949" rx="4" ry="4"/>
<text text-anchor="middle" x="768.184" y="-56.8" font-family="Times,serif" font-size="14.00">text</text>
</g>
<!-- DonorList -->
<g id="node9" class="node"><title>DonorList</title>
<ellipse fill="none" stroke="black" cx="443.688" cy="-18" rx="46.4218" ry="18"/>
<text text-anchor="middle" x="443.688" y="-13.8" font-family="Times,serif" font-size="14.00">DonorList</text>
</g>
<!-- Campaign&#45;&gt;DonorList -->
<g id="edge1" class="edge"><title>Campaign&#45;&gt;DonorList</title>
<path fill="none" stroke="#79bf62" d="M712.699,-89.1685C708.979,-88.078 705.273,-87.0092 701.688,-86 628.813,-65.4855 543.719,-43.8293 491.782,-30.8681"/>
<polygon fill="#79bf62" stroke="#79bf62" points="712.916,-89.2328 721.221,-96.3939 717.709,-90.6565 722.502,-92.0802 722.502,-92.0802 722.502,-92.0802 717.709,-90.6565 723.783,-87.7665 712.916,-89.2328 712.916,-89.2328"/>
<polygon fill="#79bf62" stroke="#79bf62" points="491.554,-30.8114 482.937,-24.0281 486.702,-29.603 481.85,-28.3947 481.85,-28.3947 481.85,-28.3947 486.702,-29.603 480.762,-32.7613 491.554,-30.8114 491.554,-30.8114"/>
</g>
<!-- Client::Policy -->
<g id="node6" class="node"><title>Client::Policy</title>
<ellipse fill="none" stroke="black" cx="201.688" cy="-190" rx="59.4773" ry="18"/>
<text text-anchor="middle" x="201.688" y="-185.8" font-family="Times,serif" font-size="14.00">Client::Policy</text>
</g>
<!-- Client -->
<g id="node7" class="node"><title>Client</title>
<ellipse fill="none" stroke="black" cx="429.688" cy="-294.5" rx="31.948" ry="18"/>
<text text-anchor="middle" x="429.688" y="-290.3" font-family="Times,serif" font-size="14.00">Client</text>
</g>
<!-- Client&#45;&gt;Client::Policy -->
<g id="edge9" class="edge"><title>Client&#45;&gt;Client::Policy</title>
<path fill="none" stroke="#9410b3" d="M410.114,-272.375C403.818,-266.805 396.447,-261.406 388.688,-258 324.157,-229.669 290.413,-278.129 231.143,-240 222.806,-234.637 216.491,-226 211.889,-217.461"/>
<ellipse fill="none" stroke="#9410b3" cx="413.113" cy="-275.194" rx="4.00002" ry="4.00002"/>
<polygon fill="#9410b3" stroke="#9410b3" points="211.866,-217.414 211.613,-206.451 209.71,-212.903 207.553,-208.392 207.553,-208.392 207.553,-208.392 209.71,-212.903 203.493,-210.333 211.866,-217.414 211.866,-217.414"/>
<text text-anchor="middle" x="253.46" y="-228.8" font-family="Times,serif" font-size="14.00">policies</text>
</g>
<!-- Donor -->
<g id="node8" class="node"><title>Donor</title>
<ellipse fill="none" stroke="black" cx="416.688" cy="-104" rx="32.9081" ry="18"/>
<text text-anchor="middle" x="416.688" y="-99.8" font-family="Times,serif" font-size="14.00">Donor</text>
</g>
<!-- Client&#45;&gt;Donor -->
<g id="edge5" class="edge"><title>Client&#45;&gt;Donor</title>
<path fill="none" stroke="#4531a0" d="M427.019,-268.178C425.3,-251.175 423.127,-228.262 421.688,-208 419.863,-182.3 418.509,-152.944 417.674,-132.165"/>
<ellipse fill="none" stroke="#4531a0" cx="427.462" cy="-272.506" rx="4" ry="4"/>
<polygon fill="#4531a0" stroke="#4531a0" points="417.673,-132.138 421.782,-121.971 417.479,-127.142 417.285,-122.145 417.285,-122.145 417.285,-122.145 417.479,-127.142 412.788,-122.32 417.673,-132.138 417.673,-132.138"/>
</g>
<!-- Form -->
<g id="node10" class="node"><title>Form</title>
<ellipse fill="none" stroke="black" cx="345.688" cy="-190" rx="29.0429" ry="18"/>
<text text-anchor="middle" x="345.688" y="-185.8" font-family="Times,serif" font-size="14.00">Form</text>
</g>
<!-- Client&#45;&gt;Form -->
<g id="edge10" class="edge"><title>Client&#45;&gt;Form</title>
<path fill="none" stroke="#95cd76" d="M411.772,-271.639C397.575,-254.315 377.832,-230.223 363.628,-212.891"/>
<ellipse fill="none" stroke="#95cd76" cx="414.395" cy="-274.839" rx="4.00002" ry="4.00002"/>
<ellipse fill="#95cd76" stroke="#95cd76" cx="360.826" cy="-209.472" rx="4.00002" ry="4.00002"/>
</g>
<!-- Gift -->
<g id="node11" class="node"><title>Gift</title>
<ellipse fill="none" stroke="black" cx="310.688" cy="-18" rx="27" ry="18"/>
<text text-anchor="middle" x="310.688" y="-13.8" font-family="Times,serif" font-size="14.00">Gift</text>
</g>
<!-- Client&#45;&gt;Gift -->
<g id="edge6" class="edge"><title>Client&#45;&gt;Gift</title>
<path fill="none" stroke="#51d3d4" d="M407.607,-273.245C401.624,-268.076 395.042,-262.665 388.688,-258 354.586,-232.962 328.299,-244.946 307.688,-208 278.971,-156.526 292.027,-84.2439 302.375,-45.6913"/>
<ellipse fill="none" stroke="#51d3d4" cx="410.82" cy="-276.071" rx="4.00002" ry="4.00002"/>
<polygon fill="#51d3d4" stroke="#51d3d4" points="302.464,-45.3796 309.516,-36.982 303.824,-40.5684 305.185,-35.7572 305.185,-35.7572 305.185,-35.7572 303.824,-40.5684 300.855,-34.5323 302.464,-45.3796 302.464,-45.3796"/>
</g>
<!-- Metric -->
<g id="node13" class="node"><title>Metric</title>
<ellipse fill="none" stroke="black" cx="678.688" cy="-190" rx="33.8596" ry="18"/>
<text text-anchor="middle" x="678.688" y="-185.8" font-family="Times,serif" font-size="14.00">Metric</text>
</g>
<!-- Client&#45;&gt;Metric -->
<g id="edge8" class="edge"><title>Client&#45;&gt;Metric</title>
<path fill="none" stroke="#bfed8c" d="M462.575,-279.962C509.416,-260.68 595,-225.45 643.219,-205.601"/>
<ellipse fill="none" stroke="#bfed8c" cx="458.632" cy="-281.585" rx="4.00001" ry="4.00001"/>
<polygon fill="#bfed8c" stroke="#bfed8c" points="643.381,-205.534 654.341,-205.889 648.005,-203.631 652.628,-201.727 652.628,-201.727 652.628,-201.727 648.005,-203.631 650.915,-197.566 643.381,-205.534 643.381,-205.534"/>
</g>
<!-- School -->
<g id="node14" class="node"><title>School</title>
<ellipse fill="none" stroke="black" cx="592.688" cy="-190" rx="34.8458" ry="18"/>
<text text-anchor="middle" x="592.688" y="-185.8" font-family="Times,serif" font-size="14.00">School</text>
</g>
<!-- Client&#45;&gt;School -->
<g id="edge11" class="edge"><title>Client&#45;&gt;School</title>
<path fill="none" stroke="#40616c" d="M457.28,-276.149C487.136,-257.375 534.493,-227.595 564.558,-208.689"/>
<ellipse fill="none" stroke="#40616c" cx="453.718" cy="-278.389" rx="4.00002" ry="4.00002"/>
<ellipse fill="#40616c" stroke="#40616c" cx="568.051" cy="-206.492" rx="4.00002" ry="4.00002"/>
</g>
<!-- Subscription -->
<g id="node15" class="node"><title>Subscription</title>
<ellipse fill="none" stroke="black" cx="485.688" cy="-190" rx="54.6334" ry="18"/>
<text text-anchor="middle" x="485.688" y="-185.8" font-family="Times,serif" font-size="14.00">Subscription</text>
</g>
<!-- Client&#45;&gt;Subscription -->
<g id="edge7" class="edge"><title>Client&#45;&gt;Subscription</title>
<path fill="none" stroke="#2a5cc8" d="M442.588,-269.887C451.264,-254.007 462.7,-233.076 471.611,-216.765"/>
<ellipse fill="none" stroke="#2a5cc8" cx="440.603" cy="-273.521" rx="4.00002" ry="4.00002"/>
<polygon fill="#2a5cc8" stroke="#2a5cc8" points="471.732,-216.544 480.476,-209.926 474.129,-212.156 476.527,-207.768 476.527,-207.768 476.527,-207.768 474.129,-212.156 472.578,-205.61 471.732,-216.544 471.732,-216.544"/>
</g>
<!-- User -->
<g id="node16" class="node"><title>User</title>
<ellipse fill="none" stroke="black" cx="757.688" cy="-190" rx="27" ry="18"/>
<text text-anchor="middle" x="757.688" y="-185.8" font-family="Times,serif" font-size="14.00">User</text>
</g>
<!-- Client&#45;&gt;User -->
<g id="edge4" class="edge"><title>Client&#45;&gt;User</title>
<path fill="none" stroke="#ef1d92" d="M466.207,-284.766C522.087,-270.965 631.792,-242.147 721.688,-208 723.529,-207.301 725.407,-206.546 727.29,-205.758"/>
<ellipse fill="none" stroke="#ef1d92" cx="462.246" cy="-285.738" rx="4.00001" ry="4.00001"/>
<polygon fill="#ef1d92" stroke="#ef1d92" points="727.464,-205.681 738.429,-205.742 732.035,-203.654 736.606,-201.628 736.606,-201.628 736.606,-201.628 732.035,-203.654 734.782,-197.514 727.464,-205.681 727.464,-205.681"/>
</g>
<!-- Donor&#45;&gt;DonorList -->
<g id="edge13" class="edge"><title>Donor&#45;&gt;DonorList</title>
<path fill="none" stroke="#298f48" d="M425.223,-76.4449C428.382,-66.6168 431.963,-55.4778 435.124,-45.642"/>
<polygon fill="#298f48" stroke="#298f48" points="425.212,-76.4811 417.867,-84.6243 423.682,-81.2412 422.152,-86.0013 422.152,-86.0013 422.152,-86.0013 423.682,-81.2412 426.436,-87.3784 425.212,-76.4811 425.212,-76.4811"/>
<polygon fill="#298f48" stroke="#298f48" points="435.172,-45.4937 442.516,-37.3504 436.702,-40.7335 438.232,-35.9734 438.232,-35.9734 438.232,-35.9734 436.702,-40.7335 433.948,-34.5963 435.172,-45.4937 435.172,-45.4937"/>
</g>
<!-- Donor&#45;&gt;Gift -->
<g id="edge12" class="edge"><title>Donor&#45;&gt;Gift</title>
<path fill="none" stroke="#50b0fa" d="M392.278,-83.6562C375.177,-70.1045 352.408,-52.0617 335.27,-38.48"/>
<ellipse fill="none" stroke="#50b0fa" cx="395.571" cy="-86.2662" rx="4.00002" ry="4.00002"/>
<polygon fill="#50b0fa" stroke="#50b0fa" points="335.195,-38.421 330.153,-28.6833 331.276,-35.3156 327.358,-32.2102 327.358,-32.2102 327.358,-32.2102 331.276,-35.3156 324.563,-35.737 335.195,-38.421 335.195,-38.421"/>
</g>
<!-- Metric::Form::Conversion -->
<g id="node12" class="node"><title>Metric::Form::Conversion</title>
<ellipse fill="none" stroke="black" cx="589.688" cy="-104" rx="103.394" ry="18"/>
<text text-anchor="middle" x="589.688" y="-99.8" font-family="Times,serif" font-size="14.00">Metric::Form::Conversion</text>
</g>
<!-- Metric&#45;&gt;Metric::Form::Conversion -->
<g id="edge14" class="edge"><title>Metric&#45;&gt;Metric::Form::Conversion</title>
<path fill="none" stroke="#45d4f7" d="M656.618,-168.17C643.517,-155.805 626.905,-140.126 613.508,-127.482"/>
<ellipse fill="none" stroke="#45d4f7" cx="659.867" cy="-171.237" rx="4.00002" ry="4.00002"/>
<ellipse fill="#45d4f7" stroke="#45d4f7" cx="610.512" cy="-124.654" rx="4.00002" ry="4.00002"/>
<text text-anchor="middle" x="686.509" y="-142.8" font-family="Times,serif" font-size="14.00">form_conversion</text>
</g>
<!-- Subscription&#45;&gt;Donor -->
<g id="edge15" class="edge"><title>Subscription&#45;&gt;Donor</title>
<path fill="none" stroke="#4c6e8e" d="M466.868,-166.089C457.349,-154.5 445.807,-140.45 436.194,-128.747"/>
<ellipse fill="none" stroke="#4c6e8e" cx="469.517" cy="-169.313" rx="4.00002" ry="4.00002"/>
<polygon fill="#4c6e8e" stroke="#4c6e8e" points="435.939,-128.436 433.069,-117.853 432.765,-124.573 429.591,-120.709 429.591,-120.709 429.591,-120.709 432.765,-124.573 426.114,-123.565 435.939,-128.436 435.939,-128.436"/>
</g>
<!-- User&#45;&gt;Campaign -->
<g id="edge16" class="edge"><title>User&#45;&gt;Campaign</title>
<path fill="none" stroke="#912fa9" d="M757.688,-163.257C757.688,-153.441 757.688,-142.226 757.688,-132.273"/>
<ellipse fill="none" stroke="#912fa9" cx="757.688" cy="-167.595" rx="4" ry="4"/>
<polygon fill="#912fa9" stroke="#912fa9" points="757.688,-132.095 762.188,-122.095 757.688,-127.095 757.688,-122.095 757.688,-122.095 757.688,-122.095 757.688,-127.095 753.188,-122.095 757.688,-132.095 757.688,-132.095"/>
</g>
</g>
</svg>
