<?xml version="1.0" encoding="UTF-8" standalone="no"?>
<!DOCTYPE svg PUBLIC "-//W3C//DTD SVG 1.1//EN"
 "http://www.w3.org/Graphics/SVG/1.1/DTD/svg11.dtd">
<!-- Generated by graphviz version 2.38.0 (20140413.2041)
 -->
<!-- Title: models_diagram Pages: 1 -->
<svg width="1779pt" height="814pt"
 viewBox="0.00 0.00 1778.72 814.00" xmlns="http://www.w3.org/2000/svg" xmlns:xlink="http://www.w3.org/1999/xlink">
<g id="graph0" class="graph" transform="scale(1 1) rotate(0) translate(4 810)">
<title>models_diagram</title>
<polygon fill="none" stroke="none" points="-4,4 -4,-810 1774.72,-810 1774.72,4 -4,4"/>
<!-- _diagram_info -->
<g id="node1" class="node"><title>_diagram_info</title>
<text text-anchor="start" x="111.175" y="-784.6" font-family="Times,serif" font-size="13.00">Models diagram</text>
<text text-anchor="start" x="111.175" y="-771.6" font-family="Times,serif" font-size="13.00">Date: Aug 16 2016 &#45; 15:18</text>
<text text-anchor="start" x="111.175" y="-758.6" font-family="Times,serif" font-size="13.00">Migration version: 20160816191241</text>
<text text-anchor="start" x="111.175" y="-745.6" font-family="Times,serif" font-size="13.00">Generated by RailRoady 1.5.1</text>
<text text-anchor="start" x="111.175" y="-732.6" font-family="Times,serif" font-size="13.00">http://railroady.prestonlee.com</text>
</g>
<!-- ApplicationRecord -->
<g id="node2" class="node"><title>ApplicationRecord</title>
<ellipse fill="none" stroke="black" cx="405.862" cy="-762.5" rx="77.2916" ry="18"/>
<text text-anchor="middle" x="405.862" y="-758.3" font-family="Times,serif" font-size="14.00">ApplicationRecord</text>
</g>
<!-- Campaign::Email -->
<g id="node3" class="node"><title>Campaign::Email</title>
<path fill="none" stroke="black" d="M1269,-21.5C1269,-21.5 1492.72,-21.5 1492.72,-21.5 1498.72,-21.5 1504.72,-27.5 1504.72,-33.5 1504.72,-33.5 1504.72,-123.5 1504.72,-123.5 1504.72,-129.5 1498.72,-135.5 1492.72,-135.5 1492.72,-135.5 1269,-135.5 1269,-135.5 1263,-135.5 1257,-129.5 1257,-123.5 1257,-123.5 1257,-33.5 1257,-33.5 1257,-27.5 1263,-21.5 1269,-21.5"/>
<text text-anchor="middle" x="1380.86" y="-120.3" font-family="Times,serif" font-size="14.00">Campaign::Email</text>
<polyline fill="none" stroke="black" points="1257,-113.5 1504.72,-113.5 "/>
<text text-anchor="start" x="1265" y="-98.3" font-family="Times,serif" font-size="14.00">id :integer</text>
<text text-anchor="start" x="1265" y="-84.3" font-family="Times,serif" font-size="14.00">campaign_id :integer</text>
<text text-anchor="start" x="1265" y="-70.3" font-family="Times,serif" font-size="14.00">title :character varying</text>
<text text-anchor="start" x="1265" y="-56.3" font-family="Times,serif" font-size="14.00">body :character varying</text>
<text text-anchor="start" x="1265" y="-42.3" font-family="Times,serif" font-size="14.00">created_at :timestamp without time zone</text>
<text text-anchor="start" x="1265" y="-28.3" font-family="Times,serif" font-size="14.00">updated_at :timestamp without time zone</text>
</g>
<!-- Campaign::Text -->
<g id="node4" class="node"><title>Campaign::Text</title>
<path fill="none" stroke="black" d="M1535,-21.5C1535,-21.5 1758.72,-21.5 1758.72,-21.5 1764.72,-21.5 1770.72,-27.5 1770.72,-33.5 1770.72,-33.5 1770.72,-123.5 1770.72,-123.5 1770.72,-129.5 1764.72,-135.5 1758.72,-135.5 1758.72,-135.5 1535,-135.5 1535,-135.5 1529,-135.5 1523,-129.5 1523,-123.5 1523,-123.5 1523,-33.5 1523,-33.5 1523,-27.5 1529,-21.5 1535,-21.5"/>
<text text-anchor="middle" x="1646.86" y="-120.3" font-family="Times,serif" font-size="14.00">Campaign::Text</text>
<polyline fill="none" stroke="black" points="1523,-113.5 1770.72,-113.5 "/>
<text text-anchor="start" x="1531" y="-98.3" font-family="Times,serif" font-size="14.00">id :integer</text>
<text text-anchor="start" x="1531" y="-84.3" font-family="Times,serif" font-size="14.00">campaign_id :integer</text>
<text text-anchor="start" x="1531" y="-70.3" font-family="Times,serif" font-size="14.00">body :character varying</text>
<text text-anchor="start" x="1531" y="-56.3" font-family="Times,serif" font-size="14.00">from :character varying</text>
<text text-anchor="start" x="1531" y="-42.3" font-family="Times,serif" font-size="14.00">created_at :timestamp without time zone</text>
<text text-anchor="start" x="1531" y="-28.3" font-family="Times,serif" font-size="14.00">updated_at :timestamp without time zone</text>
</g>
<!-- Campaign -->
<g id="node5" class="node"><title>Campaign</title>
<path fill="none" stroke="black" d="M1402,-291.5C1402,-291.5 1625.72,-291.5 1625.72,-291.5 1631.72,-291.5 1637.72,-297.5 1637.72,-303.5 1637.72,-303.5 1637.72,-379.5 1637.72,-379.5 1637.72,-385.5 1631.72,-391.5 1625.72,-391.5 1625.72,-391.5 1402,-391.5 1402,-391.5 1396,-391.5 1390,-385.5 1390,-379.5 1390,-379.5 1390,-303.5 1390,-303.5 1390,-297.5 1396,-291.5 1402,-291.5"/>
<text text-anchor="middle" x="1513.86" y="-376.3" font-family="Times,serif" font-size="14.00">Campaign</text>
<polyline fill="none" stroke="black" points="1390,-369.5 1637.72,-369.5 "/>
<text text-anchor="start" x="1398" y="-354.3" font-family="Times,serif" font-size="14.00">id :integer</text>
<text text-anchor="start" x="1398" y="-340.3" font-family="Times,serif" font-size="14.00">user_id :integer</text>
<text text-anchor="start" x="1398" y="-326.3" font-family="Times,serif" font-size="14.00">school_id :integer</text>
<text text-anchor="start" x="1398" y="-312.3" font-family="Times,serif" font-size="14.00">created_at :timestamp without time zone</text>
<text text-anchor="start" x="1398" y="-298.3" font-family="Times,serif" font-size="14.00">updated_at :timestamp without time zone</text>
</g>
<!-- Campaign&#45;&gt;Campaign::Email -->
<g id="edge3" class="edge"><title>Campaign&#45;&gt;Campaign::Email</title>
<path fill="none" stroke="#cfdc28" d="M1485.19,-284.231C1464.02,-242.693 1435.19,-186.121 1413.21,-142.97"/>
<ellipse fill="none" stroke="#cfdc28" cx="1487.03" cy="-287.844" rx="4.00002" ry="4.00002"/>
<ellipse fill="#cfdc28" stroke="#cfdc28" cx="1411.28" cy="-139.185" rx="4.00002" ry="4.00002"/>
<text text-anchor="middle" x="1450.41" y="-177.8" font-family="Times,serif" font-size="14.00">email</text>
</g>
<!-- Campaign&#45;&gt;Campaign::Text -->
<g id="edge2" class="edge"><title>Campaign&#45;&gt;Campaign::Text</title>
<path fill="none" stroke="#95c3fa" d="M1542.54,-284.231C1563.7,-242.693 1592.53,-186.121 1614.52,-142.97"/>
<ellipse fill="none" stroke="#95c3fa" cx="1540.69" cy="-287.844" rx="4.00002" ry="4.00002"/>
<ellipse fill="#95c3fa" stroke="#95c3fa" cx="1616.45" cy="-139.185" rx="4.00002" ry="4.00002"/>
<text text-anchor="middle" x="1606.36" y="-177.8" font-family="Times,serif" font-size="14.00">text</text>
</g>
<!-- DonorList -->
<g id="node9" class="node"><title>DonorList</title>
<path fill="none" stroke="black" d="M804,-35.5C804,-35.5 1027.72,-35.5 1027.72,-35.5 1033.72,-35.5 1039.72,-41.5 1039.72,-47.5 1039.72,-47.5 1039.72,-109.5 1039.72,-109.5 1039.72,-115.5 1033.72,-121.5 1027.72,-121.5 1027.72,-121.5 804,-121.5 804,-121.5 798,-121.5 792,-115.5 792,-109.5 792,-109.5 792,-47.5 792,-47.5 792,-41.5 798,-35.5 804,-35.5"/>
<text text-anchor="middle" x="915.862" y="-106.3" font-family="Times,serif" font-size="14.00">DonorList</text>
<polyline fill="none" stroke="black" points="792,-99.5 1039.72,-99.5 "/>
<text text-anchor="start" x="800" y="-84.3" font-family="Times,serif" font-size="14.00">id :integer</text>
<text text-anchor="start" x="800" y="-70.3" font-family="Times,serif" font-size="14.00">title :character varying</text>
<text text-anchor="start" x="800" y="-56.3" font-family="Times,serif" font-size="14.00">created_at :timestamp without time zone</text>
<text text-anchor="start" x="800" y="-42.3" font-family="Times,serif" font-size="14.00">updated_at :timestamp without time zone</text>
</g>
<!-- Campaign&#45;&gt;DonorList -->
<g id="edge1" class="edge"><title>Campaign&#45;&gt;DonorList</title>
<path fill="none" stroke="#efafed" d="M1467.36,-283.836C1442.69,-257.073 1410.38,-226.744 1375.86,-207 1320.38,-175.263 1164.75,-135.481 1049.8,-108.872"/>
<polygon fill="#efafed" stroke="#efafed" points="1467.39,-283.872 1470.77,-294.302 1470.75,-287.575 1474.11,-291.279 1474.11,-291.279 1474.11,-291.279 1470.75,-287.575 1477.44,-288.255 1467.39,-283.872 1467.39,-283.872"/>
<polygon fill="#efafed" stroke="#efafed" points="1049.6,-108.826 1040.87,-102.194 1044.73,-107.702 1039.86,-106.579 1039.86,-106.579 1039.86,-106.579 1044.73,-107.702 1038.85,-110.964 1049.6,-108.826 1049.6,-108.826"/>
</g>
<!-- Client::Policy -->
<g id="node6" class="node"><title>Client::Policy</title>
<path fill="none" stroke="black" d="M12,-533.5C12,-533.5 235.725,-533.5 235.725,-533.5 241.725,-533.5 247.725,-539.5 247.725,-545.5 247.725,-545.5 247.725,-649.5 247.725,-649.5 247.725,-655.5 241.725,-661.5 235.725,-661.5 235.725,-661.5 12,-661.5 12,-661.5 6,-661.5 0,-655.5 0,-649.5 0,-649.5 0,-545.5 0,-545.5 0,-539.5 6,-533.5 12,-533.5"/>
<text text-anchor="middle" x="123.862" y="-646.3" font-family="Times,serif" font-size="14.00">Client::Policy</text>
<polyline fill="none" stroke="black" points="0,-639.5 247.725,-639.5 "/>
<text text-anchor="start" x="8" y="-624.3" font-family="Times,serif" font-size="14.00">app_secret_key :character varying</text>
<text text-anchor="start" x="8" y="-610.3" font-family="Times,serif" font-size="14.00">app_id :character varying</text>
<text text-anchor="start" x="8" y="-596.3" font-family="Times,serif" font-size="14.00">app_public_key :character varying</text>
<text text-anchor="start" x="8" y="-582.3" font-family="Times,serif" font-size="14.00">id :integer</text>
<text text-anchor="start" x="8" y="-568.3" font-family="Times,serif" font-size="14.00">client_id :integer</text>
<text text-anchor="start" x="8" y="-554.3" font-family="Times,serif" font-size="14.00">created_at :timestamp without time zone</text>
<text text-anchor="start" x="8" y="-540.3" font-family="Times,serif" font-size="14.00">updated_at :timestamp without time zone</text>
</g>
<!-- Client -->
<g id="node7" class="node"><title>Client</title>
<path fill="none" stroke="black" d="M513,-719.5C513,-719.5 736.725,-719.5 736.725,-719.5 742.725,-719.5 748.725,-725.5 748.725,-731.5 748.725,-731.5 748.725,-793.5 748.725,-793.5 748.725,-799.5 742.725,-805.5 736.725,-805.5 736.725,-805.5 513,-805.5 513,-805.5 507,-805.5 501,-799.5 501,-793.5 501,-793.5 501,-731.5 501,-731.5 501,-725.5 507,-719.5 513,-719.5"/>
<text text-anchor="middle" x="624.862" y="-790.3" font-family="Times,serif" font-size="14.00">Client</text>
<polyline fill="none" stroke="black" points="501,-783.5 748.725,-783.5 "/>
<text text-anchor="start" x="509" y="-768.3" font-family="Times,serif" font-size="14.00">id :integer</text>
<text text-anchor="start" x="509" y="-754.3" font-family="Times,serif" font-size="14.00">name :character varying</text>
<text text-anchor="start" x="509" y="-740.3" font-family="Times,serif" font-size="14.00">created_at :timestamp without time zone</text>
<text text-anchor="start" x="509" y="-726.3" font-family="Times,serif" font-size="14.00">updated_at :timestamp without time zone</text>
</g>
<!-- Client&#45;&gt;Client::Policy -->
<g id="edge9" class="edge"><title>Client&#45;&gt;Client::Policy</title>
<path fill="none" stroke="#43a8dc" d="M492.98,-719.214C492.607,-719.142 492.234,-719.071 491.862,-719 432.011,-707.644 273.278,-727.276 218.317,-701 202.44,-693.409 187.96,-681.859 175.366,-669.211"/>
<ellipse fill="none" stroke="#43a8dc" cx="496.944" cy="-720.025" rx="4.00001" ry="4.00001"/>
<polygon fill="#43a8dc" stroke="#43a8dc" points="175.07,-668.9 171.431,-658.556 171.621,-665.28 168.172,-661.66 168.172,-661.66 168.172,-661.66 171.621,-665.28 164.914,-664.763 175.07,-668.9 175.07,-668.9"/>
<text text-anchor="middle" x="240.635" y="-689.8" font-family="Times,serif" font-size="14.00">policies</text>
</g>
<!-- Donor -->
<g id="node8" class="node"><title>Donor</title>
<path fill="none" stroke="black" d="M512,-207.5C512,-207.5 735.725,-207.5 735.725,-207.5 741.725,-207.5 747.725,-213.5 747.725,-219.5 747.725,-219.5 747.725,-463.5 747.725,-463.5 747.725,-469.5 741.725,-475.5 735.725,-475.5 735.725,-475.5 512,-475.5 512,-475.5 506,-475.5 500,-469.5 500,-463.5 500,-463.5 500,-219.5 500,-219.5 500,-213.5 506,-207.5 512,-207.5"/>
<text text-anchor="middle" x="623.862" y="-460.3" font-family="Times,serif" font-size="14.00">Donor</text>
<polyline fill="none" stroke="black" points="500,-453.5 747.725,-453.5 "/>
<text text-anchor="start" x="508" y="-438.3" font-family="Times,serif" font-size="14.00">campaign_id :integer</text>
<text text-anchor="start" x="508" y="-424.3" font-family="Times,serif" font-size="14.00">first_name :character varying</text>
<text text-anchor="start" x="508" y="-410.3" font-family="Times,serif" font-size="14.00">last_name :character varying</text>
<text text-anchor="start" x="508" y="-396.3" font-family="Times,serif" font-size="14.00">email :character varying</text>
<text text-anchor="start" x="508" y="-382.3" font-family="Times,serif" font-size="14.00">created_at :timestamp without time zone</text>
<text text-anchor="start" x="508" y="-368.3" font-family="Times,serif" font-size="14.00">updated_at :timestamp without time zone</text>
<text text-anchor="start" x="508" y="-354.3" font-family="Times,serif" font-size="14.00">key :character varying</text>
<text text-anchor="start" x="508" y="-340.3" font-family="Times,serif" font-size="14.00">braintree_customer_id :character varying</text>
<text text-anchor="start" x="508" y="-326.3" font-family="Times,serif" font-size="14.00">phone_number :character varying</text>
<text text-anchor="start" x="508" y="-312.3" font-family="Times,serif" font-size="14.00">gift_frequency :character varying</text>
<text text-anchor="start" x="508" y="-298.3" font-family="Times,serif" font-size="14.00">subscription_id :integer</text>
<text text-anchor="start" x="508" y="-284.3" font-family="Times,serif" font-size="14.00">subscription_start :date</text>
<text text-anchor="start" x="508" y="-270.3" font-family="Times,serif" font-size="14.00">subscription_total :character varying</text>
<text text-anchor="start" x="508" y="-256.3" font-family="Times,serif" font-size="14.00">affiliation :character varying</text>
<text text-anchor="start" x="508" y="-242.3" font-family="Times,serif" font-size="14.00">class_year :integer</text>
<text text-anchor="start" x="508" y="-228.3" font-family="Times,serif" font-size="14.00">client_id :integer</text>
<text text-anchor="start" x="508" y="-214.3" font-family="Times,serif" font-size="14.00">id :integer</text>
</g>
<!-- Client&#45;&gt;Donor -->
<g id="edge5" class="edge"><title>Client&#45;&gt;Donor</title>
<path fill="none" stroke="#ce4bcf" d="M608.073,-711.348C604.269,-697.762 600.786,-682.952 598.862,-669 590.622,-609.232 593.511,-542.906 599.717,-485.731"/>
<ellipse fill="none" stroke="#ce4bcf" cx="609.229" cy="-715.346" rx="4.00001" ry="4.00001"/>
<polygon fill="#ce4bcf" stroke="#ce4bcf" points="599.746,-485.472 605.341,-476.041 600.308,-480.504 600.869,-475.535 600.869,-475.535 600.869,-475.535 600.308,-480.504 596.397,-475.03 599.746,-485.472 599.746,-485.472"/>
</g>
<!-- Form -->
<g id="node10" class="node"><title>Form</title>
<path fill="none" stroke="black" d="M316,-554.5C316,-554.5 539.725,-554.5 539.725,-554.5 545.725,-554.5 551.725,-560.5 551.725,-566.5 551.725,-566.5 551.725,-628.5 551.725,-628.5 551.725,-634.5 545.725,-640.5 539.725,-640.5 539.725,-640.5 316,-640.5 316,-640.5 310,-640.5 304,-634.5 304,-628.5 304,-628.5 304,-566.5 304,-566.5 304,-560.5 310,-554.5 316,-554.5"/>
<text text-anchor="middle" x="427.862" y="-625.3" font-family="Times,serif" font-size="14.00">Form</text>
<polyline fill="none" stroke="black" points="304,-618.5 551.725,-618.5 "/>
<text text-anchor="start" x="312" y="-603.3" font-family="Times,serif" font-size="14.00">id :integer</text>
<text text-anchor="start" x="312" y="-589.3" font-family="Times,serif" font-size="14.00">created_at :timestamp without time zone</text>
<text text-anchor="start" x="312" y="-575.3" font-family="Times,serif" font-size="14.00">updated_at :timestamp without time zone</text>
<text text-anchor="start" x="312" y="-561.3" font-family="Times,serif" font-size="14.00">client_id :integer</text>
</g>
<!-- Client&#45;&gt;Form -->
<g id="edge10" class="edge"><title>Client&#45;&gt;Form</title>
<path fill="none" stroke="#6e531d" d="M567.589,-714.112C541.652,-692.651 511.061,-667.34 485.125,-645.88"/>
<ellipse fill="none" stroke="#6e531d" cx="570.792" cy="-716.762" rx="4.00002" ry="4.00002"/>
<ellipse fill="#6e531d" stroke="#6e531d" cx="481.719" cy="-643.062" rx="4.00002" ry="4.00002"/>
</g>
<!-- Gift -->
<g id="node11" class="node"><title>Gift</title>
<path fill="none" stroke="black" d="M284,-0.5C284,-0.5 507.725,-0.5 507.725,-0.5 513.725,-0.5 519.725,-6.5 519.725,-12.5 519.725,-12.5 519.725,-144.5 519.725,-144.5 519.725,-150.5 513.725,-156.5 507.725,-156.5 507.725,-156.5 284,-156.5 284,-156.5 278,-156.5 272,-150.5 272,-144.5 272,-144.5 272,-12.5 272,-12.5 272,-6.5 278,-0.5 284,-0.5"/>
<text text-anchor="middle" x="395.862" y="-141.3" font-family="Times,serif" font-size="14.00">Gift</text>
<polyline fill="none" stroke="black" points="272,-134.5 519.725,-134.5 "/>
<text text-anchor="start" x="280" y="-119.3" font-family="Times,serif" font-size="14.00">client_id :integer</text>
<text text-anchor="start" x="280" y="-105.3" font-family="Times,serif" font-size="14.00">total :character varying</text>
<text text-anchor="start" x="280" y="-91.3" font-family="Times,serif" font-size="14.00">created_at :timestamp without time zone</text>
<text text-anchor="start" x="280" y="-77.3" font-family="Times,serif" font-size="14.00">updated_at :timestamp without time zone</text>
<text text-anchor="start" x="280" y="-63.3" font-family="Times,serif" font-size="14.00">donor_id :integer</text>
<text text-anchor="start" x="280" y="-49.3" font-family="Times,serif" font-size="14.00">campaign_id :integer</text>
<text text-anchor="start" x="280" y="-35.3" font-family="Times,serif" font-size="14.00">designation :character varying</text>
<text text-anchor="start" x="280" y="-21.3" font-family="Times,serif" font-size="14.00">gift_type :character varying</text>
<text text-anchor="start" x="280" y="-7.3" font-family="Times,serif" font-size="14.00">id :integer</text>
</g>
<!-- Client&#45;&gt;Gift -->
<g id="edge6" class="edge"><title>Client&#45;&gt;Gift</title>
<path fill="none" stroke="#b26038" d="M492.956,-719.314C492.591,-719.209 492.226,-719.104 491.862,-719 405.022,-694.13 350.326,-740.299 294.862,-669 234.994,-592.038 317.328,-310.721 365.438,-166.315"/>
<ellipse fill="none" stroke="#b26038" cx="496.847" cy="-720.443" rx="4.00001" ry="4.00001"/>
<polygon fill="#b26038" stroke="#b26038" points="365.522,-166.064 372.965,-158.011 367.11,-161.323 368.698,-156.581 368.698,-156.581 368.698,-156.581 367.11,-161.323 364.431,-155.152 365.522,-166.064 365.522,-166.064"/>
</g>
<!-- Metric -->
<g id="node12" class="node"><title>Metric</title>
<path fill="none" stroke="black" d="M1152,-554.5C1152,-554.5 1375.72,-554.5 1375.72,-554.5 1381.72,-554.5 1387.72,-560.5 1387.72,-566.5 1387.72,-566.5 1387.72,-628.5 1387.72,-628.5 1387.72,-634.5 1381.72,-640.5 1375.72,-640.5 1375.72,-640.5 1152,-640.5 1152,-640.5 1146,-640.5 1140,-634.5 1140,-628.5 1140,-628.5 1140,-566.5 1140,-566.5 1140,-560.5 1146,-554.5 1152,-554.5"/>
<text text-anchor="middle" x="1263.86" y="-625.3" font-family="Times,serif" font-size="14.00">Metric</text>
<polyline fill="none" stroke="black" points="1140,-618.5 1387.72,-618.5 "/>
<text text-anchor="start" x="1148" y="-603.3" font-family="Times,serif" font-size="14.00">id :integer</text>
<text text-anchor="start" x="1148" y="-589.3" font-family="Times,serif" font-size="14.00">client_id :integer</text>
<text text-anchor="start" x="1148" y="-575.3" font-family="Times,serif" font-size="14.00">created_at :timestamp without time zone</text>
<text text-anchor="start" x="1148" y="-561.3" font-family="Times,serif" font-size="14.00">updated_at :timestamp without time zone</text>
</g>
<!-- Client&#45;&gt;Metric -->
<g id="edge8" class="edge"><title>Client&#45;&gt;Metric</title>
<path fill="none" stroke="#59bda8" d="M756.994,-748.578C860.782,-735.773 1007.84,-711.706 1130.86,-669 1149.05,-662.687 1167.78,-654.171 1185.24,-645.241"/>
<ellipse fill="none" stroke="#59bda8" cx="752.942" cy="-749.072" rx="4.00001" ry="4.00001"/>
<polygon fill="#59bda8" stroke="#59bda8" points="1185.38,-645.169 1196.32,-644.532 1189.81,-642.856 1194.24,-640.543 1194.24,-640.543 1194.24,-640.543 1189.81,-642.856 1192.16,-636.553 1185.38,-645.169 1185.38,-645.169"/>
</g>
<!-- School -->
<g id="node13" class="node"><title>School</title>
<path fill="none" stroke="black" d="M886,-540.5C886,-540.5 1109.72,-540.5 1109.72,-540.5 1115.72,-540.5 1121.72,-546.5 1121.72,-552.5 1121.72,-552.5 1121.72,-642.5 1121.72,-642.5 1121.72,-648.5 1115.72,-654.5 1109.72,-654.5 1109.72,-654.5 886,-654.5 886,-654.5 880,-654.5 874,-648.5 874,-642.5 874,-642.5 874,-552.5 874,-552.5 874,-546.5 880,-540.5 886,-540.5"/>
<text text-anchor="middle" x="997.862" y="-639.3" font-family="Times,serif" font-size="14.00">School</text>
<polyline fill="none" stroke="black" points="874,-632.5 1121.72,-632.5 "/>
<text text-anchor="start" x="882" y="-617.3" font-family="Times,serif" font-size="14.00">id :integer</text>
<text text-anchor="start" x="882" y="-603.3" font-family="Times,serif" font-size="14.00">name :character varying</text>
<text text-anchor="start" x="882" y="-589.3" font-family="Times,serif" font-size="14.00">created_at :timestamp without time zone</text>
<text text-anchor="start" x="882" y="-575.3" font-family="Times,serif" font-size="14.00">updated_at :timestamp without time zone</text>
<text text-anchor="start" x="882" y="-561.3" font-family="Times,serif" font-size="14.00">designation :character varying</text>
<text text-anchor="start" x="882" y="-547.3" font-family="Times,serif" font-size="14.00">client_id :integer</text>
</g>
<!-- Client&#45;&gt;School -->
<g id="edge11" class="edge"><title>Client&#45;&gt;School</title>
<path fill="none" stroke="#075e90" d="M750.198,-716.438C787.48,-702.167 828.161,-685.728 864.862,-669 872.264,-665.627 879.832,-662.031 887.416,-658.318"/>
<ellipse fill="none" stroke="#075e90" cx="746.034" cy="-718.025" rx="4.00001" ry="4.00001"/>
<ellipse fill="#075e90" stroke="#075e90" cx="891.414" cy="-656.342" rx="4.00002" ry="4.00002"/>
</g>
<!-- Subscription -->
<g id="node14" class="node"><title>Subscription</title>
<path fill="none" stroke="black" d="M620,-540.5C620,-540.5 843.725,-540.5 843.725,-540.5 849.725,-540.5 855.725,-546.5 855.725,-552.5 855.725,-552.5 855.725,-642.5 855.725,-642.5 855.725,-648.5 849.725,-654.5 843.725,-654.5 843.725,-654.5 620,-654.5 620,-654.5 614,-654.5 608,-648.5 608,-642.5 608,-642.5 608,-552.5 608,-552.5 608,-546.5 614,-540.5 620,-540.5"/>
<text text-anchor="middle" x="731.862" y="-639.3" font-family="Times,serif" font-size="14.00">Subscription</text>
<polyline fill="none" stroke="black" points="608,-632.5 855.725,-632.5 "/>
<text text-anchor="start" x="616" y="-617.3" font-family="Times,serif" font-size="14.00">id :integer</text>
<text text-anchor="start" x="616" y="-603.3" font-family="Times,serif" font-size="14.00">frequency :character varying</text>
<text text-anchor="start" x="616" y="-589.3" font-family="Times,serif" font-size="14.00">created_at :timestamp without time zone</text>
<text text-anchor="start" x="616" y="-575.3" font-family="Times,serif" font-size="14.00">updated_at :timestamp without time zone</text>
<text text-anchor="start" x="616" y="-561.3" font-family="Times,serif" font-size="14.00">interval :integer</text>
<text text-anchor="start" x="616" y="-547.3" font-family="Times,serif" font-size="14.00">client_id :integer</text>
</g>
<!-- Client&#45;&gt;Subscription -->
<g id="edge7" class="edge"><title>Client&#45;&gt;Subscription</title>
<path fill="none" stroke="#7f1982" d="M657.347,-712.014C667.494,-696.556 678.841,-679.271 689.56,-662.942"/>
<ellipse fill="none" stroke="#7f1982" cx="654.891" cy="-715.755" rx="4.00002" ry="4.00002"/>
<polygon fill="#7f1982" stroke="#7f1982" points="689.61,-662.865 698.86,-656.975 692.354,-658.685 695.098,-654.505 695.098,-654.505 695.098,-654.505 692.354,-658.685 691.336,-652.036 689.61,-662.865 689.61,-662.865"/>
</g>
<!-- User -->
<g id="node15" class="node"><title>User</title>
<path fill="none" stroke="black" d="M1418,-526.5C1418,-526.5 1641.72,-526.5 1641.72,-526.5 1647.72,-526.5 1653.72,-532.5 1653.72,-538.5 1653.72,-538.5 1653.72,-656.5 1653.72,-656.5 1653.72,-662.5 1647.72,-668.5 1641.72,-668.5 1641.72,-668.5 1418,-668.5 1418,-668.5 1412,-668.5 1406,-662.5 1406,-656.5 1406,-656.5 1406,-538.5 1406,-538.5 1406,-532.5 1412,-526.5 1418,-526.5"/>
<text text-anchor="middle" x="1529.86" y="-653.3" font-family="Times,serif" font-size="14.00">User</text>
<polyline fill="none" stroke="black" points="1406,-646.5 1653.72,-646.5 "/>
<text text-anchor="start" x="1414" y="-631.3" font-family="Times,serif" font-size="14.00">client_id :integer</text>
<text text-anchor="start" x="1414" y="-617.3" font-family="Times,serif" font-size="14.00">first_name :character varying</text>
<text text-anchor="start" x="1414" y="-603.3" font-family="Times,serif" font-size="14.00">last_name :character varying</text>
<text text-anchor="start" x="1414" y="-589.3" font-family="Times,serif" font-size="14.00">email :character varying</text>
<text text-anchor="start" x="1414" y="-575.3" font-family="Times,serif" font-size="14.00">created_at :timestamp without time zone</text>
<text text-anchor="start" x="1414" y="-561.3" font-family="Times,serif" font-size="14.00">updated_at :timestamp without time zone</text>
<text text-anchor="start" x="1414" y="-547.3" font-family="Times,serif" font-size="14.00">password_digest :character varying</text>
<text text-anchor="start" x="1414" y="-533.3" font-family="Times,serif" font-size="14.00">id :integer</text>
</g>
<!-- Client&#45;&gt;User -->
<g id="edge4" class="edge"><title>Client&#45;&gt;User</title>
<path fill="none" stroke="#2ce766" d="M757.057,-760.299C911.08,-755.636 1171.98,-737.556 1396.23,-668.983"/>
<ellipse fill="none" stroke="#2ce766" cx="752.776" cy="-760.424" rx="4" ry="4"/>
<polygon fill="#2ce766" stroke="#2ce766" points="1396.32,-668.956 1407.2,-670.295 1401.09,-667.476 1405.87,-665.997 1405.87,-665.997 1405.87,-665.997 1401.09,-667.476 1404.54,-661.698 1396.32,-668.956 1396.32,-668.956"/>
</g>
<!-- Donor&#45;&gt;DonorList -->
<g id="edge13" class="edge"><title>Donor&#45;&gt;DonorList</title>
<path fill="none" stroke="#b966c9" d="M755.647,-222.706C792.748,-189.544 831.086,-155.276 860.953,-128.58"/>
<polygon fill="#b966c9" stroke="#b966c9" points="755.576,-222.77 745.121,-226.079 751.848,-226.102 748.12,-229.434 748.12,-229.434 748.12,-229.434 751.848,-226.102 751.119,-232.789 755.576,-222.77 755.576,-222.77"/>
<polygon fill="#b966c9" stroke="#b966c9" points="861.295,-128.275 871.749,-124.965 865.023,-124.942 868.75,-121.61 868.75,-121.61 868.75,-121.61 865.023,-124.942 865.752,-118.255 861.295,-128.275 861.295,-128.275"/>
</g>
<!-- Donor&#45;&gt;Gift -->
<g id="edge12" class="edge"><title>Donor&#45;&gt;Gift</title>
<path fill="none" stroke="#a18d2f" d="M502.202,-201.231C491.251,-188.694 480.394,-176.266 470.038,-164.412"/>
<ellipse fill="none" stroke="#a18d2f" cx="504.893" cy="-204.311" rx="4.00002" ry="4.00002"/>
<polygon fill="#a18d2f" stroke="#a18d2f" points="469.888,-164.24 466.699,-153.749 466.599,-160.475 463.31,-156.709 463.31,-156.709 463.31,-156.709 466.599,-160.475 459.921,-159.67 469.888,-164.24 469.888,-164.24"/>
</g>
<!-- Metric::Form::Conversion -->
<g id="node16" class="node"><title>Metric::Form::Conversion</title>
<ellipse fill="none" stroke="black" cx="1263.86" cy="-341.5" rx="103.394" ry="18"/>
<text text-anchor="middle" x="1263.86" y="-337.3" font-family="Times,serif" font-size="14.00">Metric::Form::Conversion</text>
</g>
<!-- Metric&#45;&gt;Metric::Form::Conversion -->
<g id="edge14" class="edge"><title>Metric&#45;&gt;Metric::Form::Conversion</title>
<path fill="none" stroke="#08a208" d="M1263.86,-546.034C1263.86,-492.307 1263.86,-409.435 1263.86,-367.967"/>
<ellipse fill="none" stroke="#08a208" cx="1263.86" cy="-550.272" rx="4" ry="4"/>
<ellipse fill="#08a208" stroke="#08a208" cx="1263.86" cy="-363.772" rx="4" ry="4"/>
<text text-anchor="middle" x="1311.68" y="-496.8" font-family="Times,serif" font-size="14.00">form_conversion</text>
</g>
<!-- Subscription&#45;&gt;Donor -->
<g id="edge15" class="edge"><title>Subscription&#45;&gt;Donor</title>
<path fill="none" stroke="#33d6a5" d="M704.879,-533.039C698.563,-518.185 691.582,-501.768 684.446,-484.985"/>
<ellipse fill="none" stroke="#33d6a5" cx="706.462" cy="-536.763" rx="4.00002" ry="4.00002"/>
<polygon fill="#33d6a5" stroke="#33d6a5" points="684.382,-484.834 684.61,-473.87 682.426,-480.232 680.469,-475.631 680.469,-475.631 680.469,-475.631 682.426,-480.232 676.328,-477.392 684.382,-484.834 684.382,-484.834"/>
</g>
<!-- User&#45;&gt;Campaign -->
<g id="edge16" class="edge"><title>User&#45;&gt;Campaign</title>
<path fill="none" stroke="#6e7d23" d="M1524.94,-518.288C1522.57,-480.758 1519.79,-436.525 1517.6,-401.819"/>
<ellipse fill="none" stroke="#6e7d23" cx="1525.2" cy="-522.429" rx="4" ry="4"/>
<polygon fill="#6e7d23" stroke="#6e7d23" points="1517.6,-401.815 1521.46,-391.552 1517.28,-396.825 1516.97,-391.835 1516.97,-391.835 1516.97,-391.835 1517.28,-396.825 1512.48,-392.118 1517.6,-401.815 1517.6,-401.815"/>
</g>
</g>
</svg>
